<svg style="fill-rule:evenodd;clip-rule:evenodd;stroke-linecap:round;stroke-linejoin:round;" xmlns:vectornator="http://vectornator.io" xmlns:xlink="http://www.w3.org/1999/xlink" xmlns="http://www.w3.org/2000/svg" xml:space="preserve" version="1.1" viewBox="0 0 3370.81 2384.24">
<path stroke="#000000" stroke-width="5" d="M613.463+1800.83C626.457+1785.31+641.02+1770.97+652.445+1754.26C669.555+1729.23+683.947+1702.44+698.797+1676.01C701.065+1671.97+701.739+1654.18+700.258+1653.32C694.06+1649.71+685.087+1652.52+678.941+1656.22C658.976+1668.22+656.343+1685.11+654.404+1706.08C653.22+1718.88+668.167+1727.9+673.326+1739.67C682.702+1761.07+690.989+1783+697.687+1805.38C707.212+1837.2+723.906+1872.2+713.556+1903.76C710.127+1914.22+702.588+1924.62+692.625+1929.3C672.153+1938.91+645.327+1917.44+632.976+1906.98C626.112+1901.17+614.388+1894.45+616.412+1885.68C631.16+1821.83+718.521+1766.2+759.539+1715.43C767.622+1705.43+786.719+1674.82+787.244+1656.27C787.294+1654.5+782.883+1657.11+782.59+1658.86C780.952+1668.64+782.598+1678.7+781.83+1688.59C780.63+1704.01+778.278+1719.32+776.691+1734.71C773.095+1769.58+769.668+1802.82+765.168+1837.36C763.459+1850.48+760.874+1863.48+759.366+1876.62C758.941+1880.32+756.064+1889.49+759.38+1887.79C764.391+1885.23+764.534+1877.79+766.987+1872.72C773.029+1860.25+778.029+1847.24+784.862+1835.18C792.18+1822.27+801.405+1810.53+809.34+1797.98C813.985+1790.64+818.026+1782.92+822.591+1775.53C823.048+1774.79+824.121+1772.8+824.377+1773.63C832.501+1799.98+820.777+1835.02+823.789+1863.07C824.507+1869.76+822.134+1881.34+828.732+1882.63C836.971+1884.23+839.459+1870.41+841.638+1866.13C848.036+1853.57+852.645+1840.08+859.876+1827.98C866.993+1816.07+876.713+1805.91+884.493+1794.42C887.98+1789.28+884.822+1781.81+893.869+1779.39C896.417+1778.71+893.079+1784.62+892.323+1787.15C889.245+1797.44+885.857+1807.64+882.379+1817.8C877.582+1831.82+862.694+1869.71+893.615+1864.71C931.874+1858.52+956.607+1794.16+976.197+1768.05C977.739+1765.99+988.431+1756.06+990.121+1759.7C998.957+1778.72+969.964+1868.9+1006.73+1864.11C1066.89+1856.27+1126.33+1746.94+1145.07+1693.86C1152.29+1673.39+1159.15+1652.14+1159.83+1630.45C1160.17+1619.49+1150.35+1594.82+1142.52+1602.5C1081.19+1662.64+1055.4+1738.1+1065.62+1822.54C1065.98+1825.54+1067.35+1828.6+1069.48+1830.73C1080.01+1841.24+1088.89+1855.82+1103.16+1860.03C1116.39+1863.93+1133.03+1861.19+1143.89+1852.69C1162.07+1838.45+1171.51+1814.65+1178.31+1792.59C1183.03+1777.31+1188.7+1762.2+1191.46+1746.45C1192.32+1741.52+1190.49+1726.87+1188.98+1731.64C1183.96+1747.55+1183.26+1764.5+1180.56+1780.96C1178.06+1796.24+1176.85+1819.91+1180.44+1831.47C1184.59+1844.86+1190.21+1860.79+1202.7+1867.13C1216.97+1874.37+1238.59+1866.08+1248.83+1853.78C1261.95+1838.04+1277.61+1824.27+1288.86+1807.15C1298.12+1793.04+1303.36+1776.64+1309.74+1761.01C1310.68+1758.68+1310.57+1751.03+1310.72+1753.54C1316.37+1848.11+1323.39+1948+1289.26+2037.98C1281.4+2058.69+1271.89+2079.08+1259.27+2097.28C1254.38+2104.34+1245.88+2115.41+1238.06+2111.88C1227.77+2107.24+1227.5+2091.85+1223.67+2081.24C1221.91+2076.36+1220.01+2070.84+1221.44+2065.86C1229.18+2038.9+1236.8+2011.31+1250.76+1986.98C1289.81+1918.88+1358.27+1842.8+1416.73+1791.21C1438.3+1772.17+1473.81+1740.31+1508.57+1738.23L1510.73+1744.73C1505.27+1749.37+1497.25+1749.8+1491.05+1753.39C1467.8+1766.83+1443.39+1779.05+1422.99+1796.51C1358.89+1851.34+1301.61+1916.63+1259.71+1989.84C1246.6+2012.75+1241.76+2039.49+1232.91+2064.36C1229.05+2075.21+1223.33+2099.06+1227.51+2104.39C1232.26+2110.43+1242.93+2099+1247.46+2092.79C1260.05+2075.54+1269.73+2056.07+1277.34+2036.11C1295.88+1987.47+1299.36+1933.8+1301.18+1881.78C1302.03+1857.34+1297.46+1832.33+1302.61+1808.42C1306.43+1790.69+1311.69+1773.3+1315.73+1755.61C1316.33+1753.02+1314.01+1760.65+1312.98+1763.11C1306.33+1778.95+1301.95+1796.01+1292.7+1810.5C1280.87+1829.04+1265.18+1844.84+1250.41+1861.14C1246.93+1864.98+1243.28+1869.92+1238.16+1870.71C1222.88+1873.08+1205.19+1877.94+1191.79+1870.24C1178.71+1862.73+1172.99+1845.66+1169.15+1831.07C1161.42+1801.66+1176.83+1754.9+1194.28+1732.61C1197.4+1728.62+1196.49+1742.76+1195.55+1747.73C1192.52+1763.83+1187.44+1779.5+1182.5+1795.13C1180.98+1799.93+1178.93+1804.61+1176.22+1808.86C1165.43+1825.79+1158.38+1846.76+1142.1+1858.5C1129.67+1867.45+1111.36+1870.82+1096.78+1866.12C1080.68+1860.93+1070.79+1844.3+1059.37+1831.82C1056.87+1829.08+1056.1+1824.99+1055.75+1821.29C1053.8+1800.96+1049.68+1780.34+1052.49+1760.11C1061.22+1697.23+1093+1634.58+1147.21+1599.86C1153.68+1595.72+1164.32+1616.43+1163.58+1631.77C1162.51+1653.61+1155.71+1674.97+1148.4+1695.57C1129.32+1749.36+1065.89+1867.9+1002.4+1869.52C958.654+1870.64+994.349+1780.25+992.818+1764.42C992.233+1758.36+980.847+1770.64+980.552+1771.03C972.237+1782.12+964.002+1793.29+956.183+1804.73C939.134+1829.69+924.582+1870.53+887.29+1868.92C840.026+1866.88+882.145+1808.08+892.323+1793.08C894.655+1789.65+901.262+1785+898.26+1782.14C893.219+1777.32+890.114+1795.23+888.929+1797.04C881.35+1808.59+871.861+1818.88+864.909+1830.83C857.407+1843.72+853.595+1858.57+845.733+1871.25C841.485+1878.09+836.071+1884.82+829.006+1888.69C820.464+1893.37+816.134+1872.74+814.944+1863.07C811.381+1834.12+809.663+1799.56+829.322+1776.67C829.905+1775.99+827.834+1777.75+827.366+1778.51C822.851+1785.88+818.965+1793.61+814.428+1800.96C806.596+1813.64+797.966+1825.82+790.268+1838.59C780.045+1855.54+767.648+1891.07+752.147+1886.99C749.638+1886.33+754.992+1858.05+757.583+1836.41C763.466+1787.27+761.535+1733.37+774.594+1685.87C777.242+1676.24+783.544+1667.98+788.799+1659.48C789.334+1658.61+791.793+1657.32+791.628+1658.33C781.351+1721+713.928+1770.61+674.204+1814.5C659.656+1830.57+643.351+1845.12+630.042+1862.24C625.451+1868.14+617.342+1876.78+621.518+1882.99C633.124+1900.23+661.825+1937.55+687.954+1927.79C697.541+1924.21+705.086+1914.45+708.178+1904.69C718.028+1873.62+700.012+1839.67+690.375+1808.53C683.515+1786.36+675.171+1764.64+666.098+1743.29C660.209+1729.42+644.658+1716.82+647.607+1702.05C652.506+1677.51+655.876+1660.16+682.931+1650.9C690.423+1648.33+700.639+1648.48+706.511+1653.8C707.985+1655.13+707.088+1674.72+704.23+1679.74C689.086+1706.38+674.44+1733.4+657.048+1758.63C645.426+1775.49+630.657+1789.94+617.461+1805.6" fill="#000000" stroke-linecap="butt" opacity="1" stroke-linejoin="round"/>
<path stroke="#000000" stroke-width="5" d="M1582.7+1609.43C1565.86+1683.19+1545.83+1756.3+1532.18+1830.72C1530.92+1837.62+1532.51+1847.04+1538.43+1850.81C1542.4+1853.34+1540.71+1841.64+1542.46+1837.26C1550.05+1818.34+1556.94+1799.05+1566.41+1781C1596.77+1723.16+1635.64+1670.2+1670.95+1615.25C1675.64+1607.94+1681.33+1589.5+1694.72+1593.2C1697.36+1593.93+1701.47+1618.23+1680.07+1649.49C1649.3+1694.43+1596.53+1736.08+1542.98+1747.18C1536.21+1748.58+1559.24+1744.21+1563.58+1749.59C1584.4+1775.43+1588.48+1788.18+1621.35+1805.62C1669.73+1831.29+1764.44+1827.42+1788.3+1765.28C1791.94+1755.8+1788.92+1744.89+1787.58+1734.82C1786.17+1724.2+1747.99+1720.97+1729.95+1726.05C1706.52+1732.65+1686.63+1751.94+1677.62+1773.97C1674.64+1781.27+1670.3+1790.67+1674.41+1797.39C1677.96+1803.2+1687.63+1801.95+1694.42+1801.46C1713.92+1800.05+1728.6+1787.7+1739.87+1773.12C1743.18+1768.82+1745.16+1763.58+1746.88+1758.44C1747.24+1757.36+1745.25+1754.22+1745.89+1755.16C1748+1758.28+1755.69+1778.65+1760.41+1780.72C1781.63+1790.04+1805.18+1780.55+1820.47+1764.5C1840.59+1743.39+1863.12+1724.15+1879.93+1700.31C1890.78+1684.9+1894.86+1665.7+1902.31+1648.39C1911.67+1626.66+1919.72+1604.33+1926.35+1581.63C1928.85+1573.08+1939.88+1557.43+1931.21+1555.35C1920.57+1552.8+1912.87+1568.02+1906.41+1576.85C1892.46+1595.92+1882.74+1617.74+1870.71+1638.08C1851.55+1670.49+1826.69+1714.14+1842.94+1753.95C1848.74+1768.17+1860.17+1781.11+1873.82+1788.16C1884.54+1793.69+1897.98+1789.57+1909.99+1788.57C1933.87+1786.59+1958.14+1734.71+1964.38+1717.83C1966.28+1712.69+1970.23+1698.02+1965.97+1701.46C1937.44+1724.52+1955.61+1758.31+1987.35+1760.51C2002.4+1761.56+2017.33+1756.92+2032.16+1754.14C2048.76+1751.03+2062.28+1737.5+2078.93+1734.73C2108.91+1729.75+2120.44+1776.54+2154.78+1774.51C2191.59+1772.33+2226.4+1754.79+2259.13+1737.81C2259.49+1737.62+2266.74+1733.65+2267.28+1736.14C2270.75+1752.34+2261.93+1776.18+2282.32+1783.04L2278.42+1785.97C2266.94+1780.86+2258.91+1780.2+2258.83+1762.06C2258.79+1754.26+2271.97+1741.19+2264.39+1739.33C2246.11+1734.84+2232.64+1760.08+2215.07+1766.83C2194.66+1774.68+2173.38+1781.9+2151.55+1783.28C2107.46+1786.06+2109.65+1734.52+2081.48+1740.74C2063.58+1744.7+2049.13+1759.96+2030.97+1762.49C2013.58+1764.91+1995.71+1770.9+1978.51+1767.34C1965.97+1764.75+1953.57+1756.23+1947.15+1745.14C1941.02+1734.55+1951.62+1700.61+1969.97+1702.93C1975.73+1703.66+1969.8+1714.77+1967.81+1720.24C1954.67+1756.36+1947.51+1767.45+1917.6+1791.94C1914.53+1794.45+1910.18+1795.39+1906.22+1795.4C1892.04+1795.44+1876.05+1799.23+1863.82+1792.08C1848.81+1783.3+1837.22+1767.73+1831.1+1751.46C1815.91+1711.09+1840.23+1662.63+1863.18+1631.62C1878.6+1610.79+1891.5+1587.74+1909.8+1569.39C1916.89+1562.27+1928.97+1551.7+1937.37+1557.21C1944.86+1562.13+1933.68+1574.77+1931.01+1583.31C1923.83+1606.3+1915.86+1629.09+1906.41+1651.25C1898.9+1668.85+1894.8+1688.34+1883.9+1704.08C1866.84+1728.73+1844.2+1749.02+1823.64+1770.84C1812.31+1782.85+1795.27+1790.07+1778.88+1792.05C1758.57+1794.5+1733.26+1775.18+1752.3+1757.73C1753.36+1756.75+1751.91+1760.63+1751.31+1761.94C1748.92+1767.15+1746.96+1772.72+1743.36+1777.19C1737+1785.09+1729.52+1792.09+1721.76+1798.62C1711.42+1807.3+1674.27+1810.39+1666.64+1794.06C1659.17+1778.07+1685.07+1747.02+1690.96+1739.68C1704.68+1722.57+1790.53+1703.5+1792.92+1736.92C1793.71+1747.94+1796.34+1759.81+1792.2+1770.06C1765.93+1835.18+1666.45+1839.63+1614.95+1812.02C1591.95+1799.7+1575.31+1777.28+1560.47+1755.81C1555.89+1749.18+1548.89+1744.51+1542.41+1739.71C1541.74+1739.21+1539.12+1739.77+1539.92+1739.53C1594.02+1723.06+1634.74+1688.55+1672.21+1646.4C1685.08+1631.93+1705.44+1602.59+1698.72+1597.93C1689.24+1591.36+1677.41+1611.39+1673.85+1617.04C1654.14+1648.32+1634.08+1679.39+1614.93+1711.01C1588.3+1755.01+1565.16+1801.15+1536.7+1843.99C1535.06+1846.45+1531.59+1851.24+1529.5+1849.15C1524.13+1843.78+1519.38+1835.55+1520.79+1828.08C1534.8+1753.8+1556.94+1681.29+1575.02+1607.89" fill="#000000" stroke-linecap="butt" opacity="1" stroke-linejoin="round"/>
<path stroke="#000000" stroke-width="5" d="M2011.36+1625.57C2027.62+1607.56+2077.42+1588.56+2060.13+1571.53C2038.7+1550.42+1995.46+1568.29+1971.02+1585.84C1960.07+1593.7+1985.97+1608.99+1996.83+1616.99C2001.11+1620.14+2007.76+1614.82+2012.77+1616.6C2035.81+1624.83+2057.44+1636.59+2079.77+1646.59L2076.9+1653.04C2055.14+1643.94+2007.82+1635.95+1991.48+1607.82C1986.3+1598.89+1970.51+1583.45+1979.88+1579.11C2005.01+1567.45+2049.12+1550.66+2062.87+1574.71C2075.8+1597.34+2028.04+1613.51+2010.62+1632.91" fill="#000000" stroke-linecap="butt" opacity="1" stroke-linejoin="round"/>
</svg>
