<svg fill="#3d5e48" xmlns="http://www.w3.org/2000/svg" width="24" height="24" viewBox="0 0 24 24"><path d="M 10.976562 1.0078125 C 10.701462 0.98583972 10.422137 1.0169063 10.154297 1.1035156 A 1.0001 1.0001 0 0 0 10.144531 1.1054688 L 8.3007812 1.7207031 A 1.0001 1.0001 0 0 0 8.28125 1.7265625 C 7.1683297 2.1222278 6.5769824 3.3748073 6.9765625 4.4863281 A 1.0001 1.0001 0 0 0 6.9804688 4.4980469 L 7.6542969 6.296875 L 6.171875 5.1972656 A 1.0001 1.0001 0 0 0 6.1679688 5.1953125 C 5.8262571 4.9434181 5.4429619 4.8195656 5.0585938 4.8027344 C 3.9054893 4.7522408 2.7537574 5.6600841 2.765625 6.9335938 A 1.0001 1.0001 0 0 0 2.765625 6.9375 L 2.7753906 7.7910156 C 2.7752737 7.8247456 2.7621333 7.8568854 2.7382812 7.8808594 A 1.0001 1.0001 0 0 0 2.734375 7.8847656 L 1.6152344 9.0234375 A 1.0001 1.0001 0 0 0 1.6015625 9.0371094 C 1.2226501 9.437795 1.0075866 9.9661562 1 10.517578 A 1.0001 1.0001 0 0 0 1 10.544922 L 1.0234375 12.478516 C 1.0249375 13.672823 2.0387095 14.65295 3.2324219 14.615234 A 1.0001 1.0001 0 0 0 3.2460938 14.615234 L 5.1796875 14.527344 L 3.6523438 15.628906 C 2.280591 16.613646 2.6358121 18.871907 4.2402344 19.390625 L 4.2441406 19.392578 L 5.0410156 19.654297 A 1.0001 1.0001 0 0 0 5.0566406 19.658203 C 5.0890426 19.668223 5.1152784 19.690573 5.1308594 19.720703 L 5.8613281 21.130859 C 6.1164565 21.641015 6.5688075 22.025319 7.1132812 22.195312 L 8.9492188 22.785156 A 1.0001 1.0001 0 0 0 8.953125 22.785156 C 10.096823 23.147319 11.341482 22.467816 11.65625 21.310547 L 12.162109 19.460938 L 12.724609 21.242188 A 1.0001 1.0001 0 0 0 12.726562 21.246094 C 13.241013 22.855729 15.501913 23.216398 16.490234 21.845703 A 1.0001 1.0001 0 0 0 16.498047 21.833984 L 16.976562 21.150391 C 17.001912 21.115161 17.039352 21.091884 17.082031 21.083984 L 17.0625 21.085938 L 18.638672 20.828125 C 19.195906 20.737535 19.695274 20.428677 20.025391 19.970703 A 1.0001 1.0001 0 0 0 20.029297 19.962891 L 21.146484 18.388672 C 21.147283 18.387572 21.145688 18.385866 21.146484 18.384766 C 21.845958 17.407896 21.58721 16.010612 20.582031 15.351562 L 18.976562 14.283203 L 20.851562 14.300781 A 1.0001 1.0001 0 0 0 20.867188 14.300781 C 22.556943 14.288351 23.579644 12.24579 22.578125 10.884766 A 1.0001 1.0001 0 0 0 22.574219 10.880859 L 22.082031 10.21875 C 22.057601 10.18402 22.047034 10.143571 22.052734 10.101562 L 22.052734 10.099609 L 22.291016 8.5195312 A 1.0001 1.0001 0 0 0 22.292969 8.5117188 C 22.372434 7.9513476 22.228221 7.3815573 21.892578 6.9257812 L 20.751953 5.3691406 C 20.398256 4.8850419 19.869465 4.5958382 19.3125 4.5214844 C 18.755535 4.4471304 18.169472 4.5865744 17.701172 4.9609375 A 1.0001 1.0001 0 0 0 17.701172 4.9628906 L 16.205078 6.1621094 L 16.792969 4.3789062 L 16.792969 4.3769531 C 17.323287 2.7695088 15.70801 1.1448016 14.097656 1.6679688 A 1.0001 1.0001 0 0 0 14.083984 1.671875 L 13.298828 1.9394531 C 13.265738 1.9501131 13.232142 1.9474406 13.201172 1.9316406 A 1.0001 1.0001 0 0 0 13.1875 1.9257812 L 11.761719 1.2246094 L 11.773438 1.2324219 C 11.522536 1.1047941 11.251663 1.0297853 10.976562 1.0078125 z M 10.769531 3.0058594 L 10.771484 3.0058594 C 10.803974 2.9958994 10.836818 2.9982219 10.867188 3.0136719 A 1.0001 1.0001 0 0 0 10.880859 3.0214844 L 12.291016 3.7128906 C 12.792562 3.968767 13.376182 4.0163872 13.912109 3.84375 A 1.0001 1.0001 0 0 0 13.929688 3.8378906 L 14.714844 3.5703125 C 14.884146 3.5153102 14.950473 3.5810061 14.894531 3.75 A 1.0001 1.0001 0 0 0 14.892578 3.7519531 L 13.494141 7.9960938 C 12.99756 7.8210031 12.480425 7.7270855 11.960938 7.7363281 C 11.443576 7.7455329 10.931578 7.8577647 10.443359 8.0488281 L 8.8574219 3.8105469 L 8.8574219 3.8085938 C 8.8256859 3.7175988 8.8597719 3.6438237 8.9511719 3.6113281 L 10.769531 3.0058594 z M 19.050781 6.4882812 C 19.082165 6.4926259 19.110895 6.5134831 19.136719 6.5488281 A 1.0001 1.0001 0 0 0 19.136719 6.5507812 L 20.28125 8.109375 A 1.0001 1.0001 0 0 0 20.28125 8.1113281 C 20.30638 8.1454561 20.31795 8.1865651 20.3125 8.2285156 L 20.074219 9.8046875 A 1.0001 1.0001 0 0 0 20.074219 9.8066406 C 19.993099 10.355824 20.1259 10.917051 20.445312 11.371094 A 1.0001 1.0001 0 0 0 20.462891 11.392578 L 20.966797 12.070312 C 21.072471 12.213921 21.031807 12.299469 20.853516 12.300781 L 16.421875 12.259766 C 16.422986 12.224417 16.429536 12.189705 16.429688 12.154297 C 16.42969 12.153645 16.429685 12.152996 16.429688 12.152344 A 1.0001 1.0001 0 0 0 16.429688 12.150391 C 16.429688 12.149729 16.429687 12.149099 16.429688 12.148438 C 16.430295 11.116672 16.068476 10.129813 15.427734 9.3476562 L 18.951172 6.5234375 C 18.985362 6.496105 19.019398 6.4839366 19.050781 6.4882812 z M 4.8203125 6.7558594 C 4.8570847 6.7369334 4.9118975 6.7527013 4.9824219 6.8046875 L 8.5546875 9.4570312 C 7.9679679 10.223613 7.6388104 11.168404 7.640625 12.152344 C 7.6407521 12.239483 7.6559391 12.325478 7.6621094 12.412109 L 3.1679688 12.617188 C 3.0760227 12.620088 3.023553 12.568559 3.0234375 12.476562 A 1.0001 1.0001 0 0 0 3.0234375 12.464844 L 3 10.544922 C 3.0006819 10.495352 3.0192044 10.448502 3.0527344 10.412109 C 3.0527344 10.412109 3.0546875 10.410156 3.0546875 10.410156 L 4.15625 9.2910156 C 4.5581081 8.8871069 4.7815187 8.3373102 4.7753906 7.7675781 A 1.0001 1.0001 0 0 0 4.7753906 7.765625 L 4.765625 6.9160156 C 4.7648086 6.8284052 4.7835403 6.7747853 4.8203125 6.7558594 z M 11.996094 9.734375 C 12.113526 9.732285 12.230955 9.7386795 12.347656 9.7539062 C 12.69776 9.7995864 13.040399 9.9235713 13.349609 10.126953 L 13.333984 10.115234 C 13.336452 10.116823 13.339333 10.117542 13.341797 10.119141 C 13.367953 10.13946 13.394942 10.158441 13.421875 10.177734 A 1.0001 1.0001 0 0 0 13.427734 10.183594 A 1.0001 1.0001 0 0 0 13.46875 10.216797 C 13.620357 10.331302 13.756425 10.46228 13.875 10.605469 C 14.111757 10.891371 14.279755 11.226711 14.365234 11.587891 C 14.408188 11.769383 14.429884 11.957815 14.429688 12.148438 C 14.428816 12.362077 14.399347 12.573547 14.341797 12.779297 L 14.328125 12.830078 L 14.326172 12.835938 L 14.310547 12.867188 L 14.292969 12.925781 A 1.0001 1.0001 0 0 0 14.287109 12.939453 L 14.287109 12.941406 C 14.248984 13.05687 14.202326 13.167582 14.148438 13.273438 C 14.148168 13.27397 14.148708 13.274859 14.148438 13.275391 C 13.769082 14.019256 13.018195 14.510735 12.164062 14.548828 A 1.0001 1.0001 0 0 0 12.101562 14.556641 A 1.0001 1.0001 0 0 0 12.037109 14.564453 A 1.0001 1.0001 0 0 0 11.996094 14.5625 C 11.014907 14.545843 10.151878 13.932449 9.8125 13.011719 A 1.0001 1.0001 0 0 0 9.7753906 12.923828 A 1.0001 1.0001 0 0 0 9.7734375 12.919922 A 1.0001 1.0001 0 0 0 9.7734375 12.917969 L 9.7734375 12.912109 L 9.7519531 12.84375 C 9.7517582 12.843146 9.7521475 12.842401 9.7519531 12.841797 C 9.7156568 12.729884 9.6886268 12.61598 9.6699219 12.5 C 9.6515849 12.383345 9.6423447 12.264644 9.6425781 12.146484 A 1.0001 1.0001 0 0 0 9.6425781 12.144531 C 9.6421184 11.779899 9.7230487 11.424985 9.875 11.103516 C 9.8753848 11.102706 9.8765674 11.102372 9.8769531 11.101562 C 9.9530451 10.941008 10.046257 10.789256 10.15625 10.648438 C 10.157098 10.647356 10.157353 10.645611 10.158203 10.644531 C 10.268132 10.504319 10.396243 10.376356 10.537109 10.261719 C 10.538055 10.261518 10.581552 10.229008 10.617188 10.203125 A 1.0001 1.0001 0 0 0 10.662109 10.175781 C 10.762742 10.104283 10.866874 10.040551 10.974609 9.9863281 C 11.188207 9.8788254 11.414392 9.8069311 11.644531 9.7675781 C 11.760725 9.7481225 11.878661 9.7364643 11.996094 9.734375 z M 15.714844 14.515625 L 19.480469 17.021484 A 1.0001 1.0001 0 0 0 19.486328 17.023438 C 19.563318 17.073918 19.575224 17.145953 19.521484 17.220703 A 1.0001 1.0001 0 0 0 19.517578 17.226562 L 18.402344 18.800781 C 18.381814 18.829261 18.353009 18.847886 18.318359 18.853516 A 1.0001 1.0001 0 0 0 18.316406 18.853516 L 16.738281 19.113281 A 1.0001 1.0001 0 0 0 16.71875 19.117188 C 16.169585 19.218796 15.679669 19.529067 15.353516 19.982422 A 1.0001 1.0001 0 0 0 15.345703 19.992188 L 14.867188 20.675781 C 14.766571 20.815326 14.683233 20.800587 14.630859 20.636719 L 13.28125 16.361328 C 14.29045 16.061965 15.153418 15.406736 15.714844 14.515625 z M 8.4375 14.646484 C 9.0286674 15.514412 9.9097252 16.140949 10.923828 16.410156 L 9.7265625 20.783203 A 1.0001 1.0001 0 0 0 9.7265625 20.785156 C 9.7033375 20.871016 9.6429604 20.904706 9.5585938 20.878906 L 7.7167969 20.289062 A 1.0001 1.0001 0 0 0 7.7089844 20.287109 C 7.6826244 20.278909 7.6607895 20.261028 7.6484375 20.236328 A 1.0001 1.0001 0 0 0 7.6425781 20.222656 L 6.90625 18.800781 C 6.6446177 18.295823 6.1898671 17.916026 5.6464844 17.748047 L 5.6640625 17.751953 L 4.8632812 17.490234 A 1.0001 1.0001 0 0 0 4.8554688 17.488281 C 4.6917197 17.4362 4.6787599 17.35412 4.8183594 17.253906 A 1.0001 1.0001 0 0 0 4.8183594 17.251953 L 8.4375 14.646484 z"></path></svg>